<svg width="90" height="93" viewBox="0 0 90 93" fill="none" xmlns="http://www.w3.org/2000/svg">
<path d="M25.9578 75.9023C12.25 66.9438 1.46756 61.1404 0.13805 52.323C-0.0445429 51.112 1.09272 50.2094 2.30382 50.3913C7.75693 51.2099 11.4758 50.8863 16.0495 49.3731C18.5038 48.5611 20.6626 47.0575 22.536 45.276C33.9516 34.4204 40.3619 30.5273 45.8066 29.5L56.134 72C50.8488 84.5871 46.0085 87.7592 34.4335 91.6826C33.1904 92.104 31.8981 91.2132 31.7867 89.9054C31.1831 82.8182 29.8106 79.5387 26.2367 76.1229C26.1515 76.0415 26.0564 75.9668 25.9578 75.9023Z" fill="#FD1024"/>
<path d="M42.808 72V16.542H65.506C75.568 16.542 82.822 20.754 85.864 27.852C86.878 30.192 87.268 32.688 87.268 35.34C87.268 44.622 81.886 49.926 74.632 52.188C71.902 53.046 68.86 53.436 65.506 53.436H56.224V72H42.808ZM56.224 42.204H65.506C70.888 42.204 73.852 40.098 73.852 35.418C73.852 30.582 70.81 27.774 65.506 27.774H56.224V42.204Z" fill="#003E52"/>
</svg>
